<svg xmlns="http://www.w3.org/2000/svg" viewBox="0 0 129.59 32.75"><defs><style>.cls-1{fill:#fff;}</style></defs><title>logo-or-branca</title><g id="Camada_2" data-name="Camada 2"><g id="Camada_1-2" data-name="Camada 1"><path class="cls-1" d="M122.81,9.84V7.62a4.44,4.44,0,0,0,1.31.76,4.38,4.38,0,0,0,1.42.25,3.16,3.16,0,0,0,.74-.08,1.72,1.72,0,0,0,.53-.21.89.89,0,0,0,.32-.32.77.77,0,0,0,.1-.4.83.83,0,0,0-.17-.52,1.83,1.83,0,0,0-.45-.42,3.91,3.91,0,0,0-.68-.37c-.27-.12-.55-.25-.86-.37a4.4,4.4,0,0,1-1.73-1.19,2.55,2.55,0,0,1-.58-1.69,2.64,2.64,0,0,1,.32-1.33,2.61,2.61,0,0,1,.85-.93,4.11,4.11,0,0,1,1.24-.53,6.57,6.57,0,0,1,1.5-.16A9.16,9.16,0,0,1,128,.2a5.3,5.3,0,0,1,1.11.29V2.56a3.55,3.55,0,0,0-.54-.3A4.44,4.44,0,0,0,128,2a4.56,4.56,0,0,0-.62-.13,4.08,4.08,0,0,0-.59,0,3,3,0,0,0-.69.07,2.17,2.17,0,0,0-.53.2,1.12,1.12,0,0,0-.33.32.73.73,0,0,0-.12.41.85.85,0,0,0,.13.45,1.49,1.49,0,0,0,.38.37,3.54,3.54,0,0,0,.59.35c.23.11.49.23.78.35a8.21,8.21,0,0,1,1.07.53,3.82,3.82,0,0,1,.82.64,2.45,2.45,0,0,1,.52.81,2.82,2.82,0,0,1,.18,1,2.84,2.84,0,0,1-.32,1.4,2.48,2.48,0,0,1-.85.91,3.55,3.55,0,0,1-1.26.51,7.46,7.46,0,0,1-1.52.15,7.77,7.77,0,0,1-1.55-.14,4.7,4.7,0,0,1-1.28-.41"/><path class="cls-1" d="M59.16,9.9V7.68a4.23,4.23,0,0,0,1.31.76,4.44,4.44,0,0,0,1.43.25,3.22,3.22,0,0,0,.74-.08,1.72,1.72,0,0,0,.53-.21.86.86,0,0,0,.31-.32.77.77,0,0,0,.11-.4.85.85,0,0,0-.17-.51A1.69,1.69,0,0,0,63,6.74a4.87,4.87,0,0,0-.69-.37c-.26-.12-.55-.25-.85-.37a4.27,4.27,0,0,1-1.74-1.19,2.58,2.58,0,0,1-.57-1.69,2.64,2.64,0,0,1,.31-1.33,2.59,2.59,0,0,1,.85-.92A3.81,3.81,0,0,1,61.53.34,6,6,0,0,1,63,.17,9.35,9.35,0,0,1,64.4.26a5.3,5.3,0,0,1,1.11.29V2.62a3.22,3.22,0,0,0-.55-.3,4.31,4.31,0,0,0-.6-.22A4.9,4.9,0,0,0,63.74,2a4.08,4.08,0,0,0-.59,0,2.93,2.93,0,0,0-.69.07,1.72,1.72,0,0,0-.53.21,1.13,1.13,0,0,0-.34.31.81.81,0,0,0-.11.41.77.77,0,0,0,.13.45,1.65,1.65,0,0,0,.37.38,4.58,4.58,0,0,0,.6.34c.23.11.49.23.78.35A10.68,10.68,0,0,1,64.43,5a3.52,3.52,0,0,1,.81.64,2.3,2.3,0,0,1,.52.81,2.63,2.63,0,0,1,.18,1.05,2.84,2.84,0,0,1-.31,1.4,2.62,2.62,0,0,1-.86.92,3.74,3.74,0,0,1-1.26.5,7.36,7.36,0,0,1-1.51.15,7.87,7.87,0,0,1-1.56-.14,4.81,4.81,0,0,1-1.28-.41"/><path class="cls-1" d="M121.06,10.22h-2.29L114.63,3.9a8.51,8.51,0,0,1-.5-.83h0a15.86,15.86,0,0,1,.06,1.62v5.53H112V.17h2.44l4,6.11c.19.28.35.55.51.82h0a10,10,0,0,1-.06-1.38V.17h2.14Z"/><path class="cls-1" d="M105.64,10.39A4.71,4.71,0,0,1,102.12,9a5,5,0,0,1-1.36-3.67,5.41,5.41,0,0,1,1.38-3.85A4.78,4.78,0,0,1,105.8,0a4.57,4.57,0,0,1,3.48,1.41,5.22,5.22,0,0,1,1.33,3.71,5.32,5.32,0,0,1-1.38,3.82,4.72,4.72,0,0,1-3.59,1.45m.1-8.44a2.24,2.24,0,0,0-1.89.89,3.71,3.71,0,0,0-.71,2.36,3.66,3.66,0,0,0,.71,2.37,2.22,2.22,0,0,0,1.83.87,2.29,2.29,0,0,0,1.86-.85,3.64,3.64,0,0,0,.68-2.34,4,4,0,0,0-.66-2.44A2.19,2.19,0,0,0,105.74,2"/><polygon class="cls-1" points="96.01 2.01 93.14 2.01 93.14 10.21 90.87 10.21 90.87 2.01 88.02 2.01 88.02 0.17 96.01 0.17 96.01 2.01"/><path class="cls-1" d="M82.65,6.75v3.47H80.39V.17h3.55c2.53,0,3.79,1.06,3.79,3.2a3.07,3.07,0,0,1-1.09,2.45,4.31,4.31,0,0,1-2.91.93Zm0-4.85V5h.89c1.21,0,1.81-.53,1.81-1.59s-.6-1.55-1.81-1.55Z"/><path class="cls-1" d="M39.82,6.75v3.47H37.56V.17h3.55c2.53,0,3.79,1.06,3.79,3.2a3.06,3.06,0,0,1-1.09,2.45,4.31,4.31,0,0,1-2.91.93Zm0-4.85V5h.89c1.21,0,1.81-.53,1.81-1.59s-.6-1.55-1.81-1.55Z"/><polygon class="cls-1" points="129.15 17.88 125.32 17.88 125.32 32.44 121.29 32.44 121.29 17.88 117.46 17.88 117.46 14.61 129.15 14.61 129.15 17.88"/><polygon class="cls-1" points="64.7 32.44 54 32.44 54 14.61 64.28 14.61 64.28 17.87 58.02 17.87 58.02 21.84 63.85 21.84 63.85 25.1 58.02 25.1 58.02 29.18 64.7 29.18 64.7 32.44"/><path class="cls-1" d="M74.6,10.22a4.55,4.55,0,0,1-3.4-1.36,4.88,4.88,0,0,1-1.32-3.54,5.23,5.23,0,0,1,1.34-3.73A4.62,4.62,0,0,1,74.76.17a4.39,4.39,0,0,1,3.36,1.36,5,5,0,0,1,1.29,3.59,5.12,5.12,0,0,1-1.34,3.69,4.54,4.54,0,0,1-3.47,1.41m.1-8.17a2.21,2.21,0,0,0-1.83.86,3.63,3.63,0,0,0-.68,2.29,3.59,3.59,0,0,0,.68,2.29,2.16,2.16,0,0,0,1.77.84,2.22,2.22,0,0,0,1.8-.82,3.53,3.53,0,0,0,.66-2.27,3.77,3.77,0,0,0-.64-2.35,2.1,2.1,0,0,0-1.76-.84"/><polygon class="cls-1" points="99.37 1.92 99.37 8.46 99.37 10.21 97.1 10.21 97.1 8.46 97.1 1.92 97.1 0.17 99.37 0.17 99.37 1.92"/><polygon class="cls-1" points="57.87 1.92 57.87 8.46 57.87 10.21 55.61 10.21 55.6 8.46 55.6 1.92 55.6 0.17 57.88 0.17 57.87 1.92"/><path class="cls-1" d="M90.36,32.75a8.31,8.31,0,0,1-6.24-2.49,9,9,0,0,1-2.41-6.5,9.56,9.56,0,0,1,2.45-6.84,8.47,8.47,0,0,1,6.49-2.61,8.11,8.11,0,0,1,6.17,2.49,9.2,9.2,0,0,1,2.36,6.6,9.45,9.45,0,0,1-2.44,6.78,8.42,8.42,0,0,1-6.38,2.57m.18-15a4,4,0,0,0-3.36,1.59,6.62,6.62,0,0,0-1.24,4.2,6.5,6.5,0,0,0,1.24,4.19,4,4,0,0,0,3.26,1.54,4,4,0,0,0,3.29-1.5A6.42,6.42,0,0,0,95,23.62a6.9,6.9,0,0,0-1.18-4.31,3.86,3.86,0,0,0-3.23-1.55"/><path class="cls-1" d="M71.39,26.3v6.14h-4V14.61h6.29q6.74,0,6.74,5.68a5.46,5.46,0,0,1-1.93,4.35A7.7,7.7,0,0,1,73.3,26.3Zm0-8.61v5.56H73q3.21,0,3.21-2.81c0-1.84-1.07-2.75-3.21-2.75Z"/><path class="cls-1" d="M116.91,32.44H112.3l-2.77-4.59q-.32-.53-.6-.93a4.23,4.23,0,0,0-.58-.7,2.09,2.09,0,0,0-.61-.45,1.46,1.46,0,0,0-.69-.16H106v6.83h-4V14.61h6.37q6.5,0,6.49,4.84a5.06,5.06,0,0,1-.28,1.73,5,5,0,0,1-.81,1.42,5.11,5.11,0,0,1-1.26,1.09,6.84,6.84,0,0,1-1.65.73v0a2.47,2.47,0,0,1,.77.4,5.42,5.42,0,0,1,.72.65,7.59,7.59,0,0,1,.67.81q.32.42.57.84ZM106,17.62v5h1.74a2.89,2.89,0,0,0,2.08-.75,2.49,2.49,0,0,0,.8-1.88c0-1.56-.94-2.33-2.8-2.33Z"/><path class="cls-1" d="M54.45,10.22h-2.6L50.29,7.63c-.12-.2-.23-.37-.34-.53a3.34,3.34,0,0,0-.32-.39,1.33,1.33,0,0,0-.35-.25.86.86,0,0,0-.39-.09h-.61v3.85H46V.17h3.59q3.66,0,3.66,2.73a2.78,2.78,0,0,1-.17,1,2.43,2.43,0,0,1-.45.8,2.83,2.83,0,0,1-.71.62,3.53,3.53,0,0,1-.93.4v0a1.63,1.63,0,0,1,.43.23,2.86,2.86,0,0,1,.41.37,5.63,5.63,0,0,1,.38.45c.12.16.22.32.32.47ZM48.28,1.86v2.8h1a1.6,1.6,0,0,0,1.16-.42,1.41,1.41,0,0,0,.45-1.06c0-.88-.52-1.32-1.57-1.32Z"/><path class="cls-1" d="M52.52,32.44H47.91l-2.77-4.59q-.31-.53-.6-.93a4.23,4.23,0,0,0-.58-.7,2.09,2.09,0,0,0-.61-.45,1.46,1.46,0,0,0-.69-.16H41.58v6.83h-4V14.61h6.37q6.49,0,6.49,4.84a5.06,5.06,0,0,1-.29,1.73,4.76,4.76,0,0,1-2.07,2.51,6.51,6.51,0,0,1-1.65.73v0a2.41,2.41,0,0,1,.78.4,6.13,6.13,0,0,1,.72.65,8.93,8.93,0,0,1,.66.81,8.45,8.45,0,0,1,.58.84ZM41.58,17.62v5h1.74a2.86,2.86,0,0,0,2.07-.75,2.45,2.45,0,0,0,.8-1.88c0-1.56-.93-2.33-2.79-2.33Z"/><polygon class="cls-1" points="18.93 11.72 18.93 0.24 30.41 11.72 30.41 0.24 0 0.24 0 32.52 30.41 32.52 30.41 11.72 18.93 11.72"/><polygon class="cls-1" points="30.41 11.72 18.93 0.24 30.41 0.24 30.41 11.72"/></g></g></svg>